<?xml version="1.0" standalone="no"?>
<!DOCTYPE svg PUBLIC "-//W3C//DTD SVG 20010904//EN"
 "http://www.w3.org/TR/2001/REC-SVG-20010904/DTD/svg10.dtd">
<svg version="1.0" xmlns="http://www.w3.org/2000/svg"
 width="700.000000pt" height="700.000000pt" viewBox="0 0 700.000000 700.000000"
 preserveAspectRatio="xMidYMid meet">
<metadata>
Created by potrace 1.11, written by Peter Selinger 2001-2013
</metadata>
<g transform="translate(0.000000,700.000000) scale(0.100000,-0.100000)"
fill="#000000" stroke="none">
<path d="M1990 6980 c-109 -24 -169 -44 -253 -86 -63 -32 -91 -49 -167 -101
-35 -24 -160 -150 -196 -198 -100 -132 -162 -280 -199 -471 -13 -68 -5 -261
13 -349 74 -347 302 -614 645 -753 l27 -12 0 -465 c0 -256 4 -465 8 -465 4 0
5 -26 1 -57 -8 -65 -4 -391 5 -438 4 -16 11 -55 16 -85 6 -30 23 -103 38 -161
19 -68 26 -113 21 -127 -16 -43 -20 -131 -9 -193 23 -128 94 -227 223 -312 37
-25 71 -47 76 -49 4 -2 24 -25 43 -53 l35 -50 -2 -217 c-1 -182 -4 -221 -18
-242 -64 -97 -268 -218 -577 -343 -74 -30 -171 -72 -215 -93 -110 -52 -244
-103 -364 -139 -124 -37 -174 -59 -246 -106 -114 -76 -218 -206 -264 -330 -44
-116 -47 -166 -47 -635 l1 -445 2916 -3 2916 -2 -3 467 c-1 258 -4 479 -7 492
-46 183 -119 307 -240 409 -82 68 -163 108 -305 152 -136 42 -220 75 -447 174
-71 31 -164 71 -205 88 -118 49 -289 136 -361 184 -68 46 -158 130 -160 148 0
6 -2 109 -3 229 l-3 218 36 49 c20 27 47 55 61 61 90 46 184 130 232 210 49
80 68 224 43 319 -8 30 -9 54 -3 70 14 36 56 208 62 255 4 23 9 52 12 65 9 39
13 379 5 438 -4 28 -4 52 1 52 4 0 9 201 10 446 l3 446 85 24 c342 97 616 369
710 705 44 157 48 352 10 519 -15 65 -61 185 -95 247 -103 184 -258 333 -445
428 -230 116 -535 135 -790 47 -121 -42 -302 -153 -361 -220 l-26 -30 -24 22
c-102 94 -210 164 -330 212 -71 29 -67 28 -164 50 -76 18 -295 24 -380 11
-140 -22 -333 -103 -441 -187 l-49 -37 -60 43 c-119 83 -247 141 -380 171
-106 23 -311 25 -415 3z"/>
</g>
</svg>
